<svg width="92" height="19" viewBox="0 0 92 19" fill="none" xmlns="http://www.w3.org/2000/svg">
<g clip-path="url(#clip0_185_1185)">
<path d="M9.6 15.2L3.7 18.3L4.8 11.7L0 7L6.6 6L9.6 0L12.6 6L19.2 7L14.4 11.7L15.5 18.3L9.6 15.2Z" fill="#F85F5E"/>
</g>
<g clip-path="url(#clip1_185_1185)">
<path d="M33.8 15.2L27.9 18.3L29 11.7L24.2 7L30.8 6L33.8 0L36.8 6L43.4 7L38.6 11.7L39.7 18.3L33.8 15.2Z" fill="#F85F5E"/>
</g>
<g clip-path="url(#clip2_185_1185)">
<path d="M58 15.2L52.1 18.3L53.2 11.7L48.4 7L55 6L58 0L61 6L67.6 7L62.8 11.7L63.9 18.3L58 15.2Z" fill="#F85F5E"/>
</g>
<g clip-path="url(#clip3_185_1185)">
<path d="M82.2 15.2L76.3 18.3L77.4 11.7L72.6 7L79.2 6L82.2 0L85.2 6L91.8 7L87 11.7L88.1 18.3L82.2 15.2Z" fill="#F85F5E"/>
</g>
<defs>
<clipPath id="clip0_185_1185">
<rect width="19.2" height="18.3" fill="white"/>
</clipPath>
<clipPath id="clip1_185_1185">
<rect width="19.2" height="18.3" fill="white" transform="translate(24.2)"/>
</clipPath>
<clipPath id="clip2_185_1185">
<rect width="19.2" height="18.3" fill="white" transform="translate(48.4)"/>
</clipPath>
<clipPath id="clip3_185_1185">
<rect width="19.2" height="18.3" fill="white" transform="translate(72.6)"/>
</clipPath>
</defs>
</svg>
